<?xml version="1.0" encoding="utf-8"?>
<!-- Generator: Adobe Illustrator 18.1.1, SVG Export Plug-In . SVG Version: 6.00 Build 0)  -->
<svg version="1.1" id="Слой_1" xmlns="http://www.w3.org/2000/svg" xmlns:xlink="http://www.w3.org/1999/xlink" x="0px" y="0px"
	 viewBox="-236 233 26.9 34.1" enable-background="new -236 233 26.9 34.1" xml:space="preserve">
<path d="M-222.4,233h-0.1l-13.5,1.4v24.7l13.5,8l13.4-8v-24.7L-222.4,233z M-211,245.1l-11.5-6.8v-0.1h-0.1l-0.1-0.1v0.1l-11.4,6.9
	v-9l11.5-1.2l11.6,1.2V245.1z M-222.6,239.8l11.5,6.7l-4.5,2.6l-7.1-4.2v1.4l5.9,3.5l-0.9,0.5l-5-3v1.4l3.8,2.3l-0.8,0.5l-3-1.8v1.4
	l1.9,1.1l-1.8,1.1l-11.4-6.7L-222.6,239.8z M-234.1,248.1l11.4,6.8v1l-7.9-4.7v1.4l8,4.8v1.1l-8-4.7v1.4l8,4.8l8.1-4.9v-5.2l3.4-2
	v10l-11.5,6.9l-11.5-6.8V248.1z"/>
</svg>
