<?xml version="1.0" encoding="utf-8"?>
<!-- Generator: Adobe Illustrator 18.1.1, SVG Export Plug-In . SVG Version: 6.00 Build 0)  -->
<svg version="1.1" id="Слой_1" xmlns="http://www.w3.org/2000/svg" xmlns:xlink="http://www.w3.org/1999/xlink" x="0px" y="0px"
	 viewBox="-156 202 187 97" enable-background="new -156 202 187 97" xml:space="preserve">
<g>
	<path fill="#81B3D3" d="M30.6,202H-156l80.5,90.5c7.1,7.9,18.6,7.9,25.7,0L30.6,202z"/>
	<path fill="#23A9E1" d="M-112.8,202.7l49.6,58.4l49.3-58L-112.8,202.7z"/>
	<path fill="#FFFFFF" d="M-34,219.3c-5.1,0-10.1,0.1-15.2,0.1C-43.2,212.5-40.5,213.2-34,219.3z"/>
	<path fill="#FFFFFF" d="M-75.2,224.7c8.9,0,17.8,0,26.7,0c-2-1.2-6.7-7.1-9.3-4.9c-0.2,0.2-7.5-8.9-12.3-4.5
		c-4.2,3.8-6.1-0.5-10.9,2.5C-86.3,221.4-77.8,223.5-75.2,224.7z"/>
	<path fill="#491213" d="M-62.9,202h-50.9v22.5l50.6,61.5l0.3-0.4l50.7-60.4V202H-62.9z M-101.1,203.8h5.5V221l-5.5-6.5V203.8z
		 M-101.9,213.6l-5-5.9v-3.9h5V213.6z M-82.6,210.9l-5.7-7.1h5.7V210.9z M-89.2,214.7l-5.6-10.9h5.6V214.7z M-94.9,205.4l5.5,10.7
		c-2.8,2.1-4.7,4-5.5,4.9V205.4z M-88.4,204.9l5.6,6.9c-1.1,0.6-2.2,1.3-3.1,1.9c-0.9,0.6-1.7,1.2-2.5,1.8V204.9z M-81.8,204.7
		l4.8,4.2c-1.7,0.7-3.3,1.5-4.8,2.3V204.7z M-76.2,208.6l-5.4-4.8h6v4.6C-75.9,208.4-76,208.5-76.2,208.6z M-57.1,203.8h5l-5,2.4
		V203.8z M-62.9,203.8h4.4l-4.4,2.1V203.8z M-63.8,205.8l-4.2-2h4.2V205.8z M-69.3,206.3l-5.1-2.5h5.1V206.3z M-74.9,204.4l4.7,2.3
		c-1.6,0.4-3.2,0.8-4.7,1.3V204.4z M-68.5,204.4l3.4,1.6c-1.2,0.1-2.3,0.2-3.5,0.4L-68.5,204.4L-68.5,204.4z M-58.1,204.5v1.9
		c-1.1-0.2-2.2-0.3-3.4-0.4L-58.1,204.5z M-51.6,204.4v3.7c-1.5-0.5-3.1-1-4.8-1.4L-51.6,204.4z M-50.9,203.8h5.9l-5.4,4.8
		c-0.2-0.1-0.3-0.1-0.5-0.2V203.8z M-37.3,203.8h5.6l-5.6,10.9V203.8z M-43.9,203.8h5.7l-5.7,7V203.8z M-44.7,204.7v6.5
		c-1.5-0.8-3.1-1.6-4.8-2.3L-44.7,204.7z M-38.1,204.9v10.5c-0.7-0.5-1.5-1-2.3-1.6c-1-0.7-2.2-1.4-3.4-2.1L-38.1,204.9z
		 M-31.7,205.4v15.2c-1.1-1-2.9-2.7-5.5-4.6L-31.7,205.4z M-30.9,221.4v-17.6h5.5v11.4L-30.9,221.4
		C-30.8,221.5-30.9,221.5-30.9,221.4z M-24.6,203.8h5v4.7l-5,5.8V203.8z M-107.6,203.8v2.9l-2.5-2.9H-107.6z M-94.8,222l0.1,0.1
		c0,0,3.6-3.9,9.2-7.6c5.3-3.5,13.3-7.6,22.3-7.5c8.9,0,17.1,4.2,22.3,7.7c5.6,3.7,9.3,7.5,9.4,7.6l-3.9,4.5
		c-6.9,0.9-11.9,6.1-18.6,5c-3.4-0.6-3.5-2.5-4.5-4.5c-0.7-1.5-1.9-1.3-3.5-1.9c-1.4-0.6-2.3-1.7-5.2-1.1c-2.5,0.6-2.8,4.5-6,4.3
		c-1.7-0.1-1.8-2.5-4.2-5.5c-6.3-7.6-12.2-6.5-16.2,0.5l30.3,35.9L-94.8,222z M-18.9,207.5v-3.7h3.2L-18.9,207.5z"/>
	<path fill="#23A9E1" d="M-67.3,272.9l4.1-6.5l4,6.5l-4,6.5L-67.3,272.9z"/>
	<path fill="#FFFFFF" d="M-90.5,234.3c0.5,0.6,0.9,1.3,0.8,2.1c-0.1,0.6-0.9,1.6-0.3,1.8c0.7-0.9,1.5-1.9,2.2-2.8
		c-0.6-0.2-5.4-5.8-5.4-6.5c-1.1,0.6-2.1,1.2-3.2,1.7c0.2,0.7,1.3,0,1.9,0c0.8,0.1,1.4,0.6,2,1.2c-1.7,1.4-5.9,5-6.4,5.1
		c-0.2,0-1.1-0.6-1.1-0.1c0,0.3,0.9,1,1,1.2c0.7,0.9,1.5,1.8,2.2,2.7c0.6-0.3-0.1-0.7,0.2-1.2C-96.3,239.1-91.7,235.2-90.5,234.3z"
		/>
	<path fill="#FFFFFF" d="M-95.8,227.3c0.4-0.1,0.6,0.4,1-0.1c-0.8-1-1.6-1.9-2.4-2.9c-0.4-0.4-0.8-0.9-0.7,0
		c0.1,0.6-6.1,5.7-6.5,5.8c-0.5,0.2-0.8-0.4-1.1,0.1c0.7,0.9,1.5,1.7,2.2,2.6c0.2,0.3,0.5,0.6,0.7,0.9c0.3,0.3,0.2-0.7,0.2-0.6
		c-0.1-0.5,0.5-0.9,0.9-1.2C-100,230.6-96.2,227.3-95.8,227.3z"/>
	<path fill="#FFFFFF" d="M-104.6,226.4c-1.8,0.5-3.7-0.2-4.2-2c-0.5-1.8,0.6-3.8,2.1-4.8c1.4-1,3.6-1,4.4,0.8
		c0.3,0.8,0.2,1.7-0.1,2.5c-0.2,0.5-0.6,1,0.1,1.3c0.9-1.1,1.7-2.2,2.6-3.3c-1.1-0.6-1.5-1.7-2.3-2.6c-0.9-1.1-2.1-2.1-3.5-2.3
		c-2.9-0.4-5.6,2.6-5.8,5.2c-0.1,1.5,0.4,2.8,1.2,4c0.8,1,1.9,1.6,2.4,2.8c0.3,0.1,2.7-1,3.3-1.3
		C-104.5,226.6-104.5,226.5-104.6,226.4C-105.3,226.6-104.6,226.4-104.6,226.4z"/>
	<path fill="#FFFFFF" d="M-65.3,262.8c-1.2-0.8-4-4.7-4.6-5.3c-0.1-0.1-0.2-0.3-0.3-0.4c0,0-0.3,0.2-0.2,0.2
		c-0.2,0.1,0.1,0.6-0.1,0.9c-0.8,1.2-5.8,5-6,5.2c-0.6,0.4-1.2-0.2-1.5,0.3c0.7,0.9,2.8,3.5,3,3.6c0.5,0.1,0.1-0.8,0.2-1
		c0.1-0.4,2.6-2.4,3.5-3.2c0.3-0.3,0.7,0.4,0.9,0.7c0.3,0.5,0.5,1,0.3,1.6c-0.1,0.4-0.7,0.9-0.3,1.2c0.6-0.7,2.4-2.8,2.6-3
		c0.3-0.3-0.6,0-0.5-0.1c-0.4,0.2-0.7,0.2-1.1,0c-0.1-0.1-1.1-1.1-1-1.2c0.4-0.4,1-1,1.5-1.1c0.9-0.2,1.6,1.5,1.7,2.1
		c0.1,0.6,0.1,1.2-0.1,1.8c-0.1,0.4-0.5,0.7,0,0.9c0.7-1,1.4-1.9,2.1-2.9C-65,262.9-65.2,262.8-65.3,262.8
		C-65.4,262.7-65.1,262.8-65.3,262.8z"/>
	<path fill="#FFFFFF" d="M-75.5,258.6c2.2-1.9,2.5-5.1,0.8-7.3c-1.9-2.5-5.4-3.1-7.8-1.1c-2.2,1.9-2.5,5-0.8,7.3
		C-81.3,260.2-78.1,260.5-75.5,258.6C-74.3,257.7-75.6,258.7-75.5,258.6z M-76,253.9c-0.6,1.5-2.2,3.1-3.7,3.7
		c-1.8,0.7-3.1-0.8-2.4-2.6c0.7-1.5,2.2-3.1,3.7-3.7C-76.5,250.6-75.3,252.2-76,253.9C-76.4,254.8-75.9,253.7-76,253.9z"/>
	<path fill="#FFFFFF" d="M-81.9,244c0.5,0.1,0.9,0.5,1.3,0c-0.7-0.9-1.5-1.8-2.2-2.6c-0.6,0.3,0,0.5-0.2,1c-0.2,0.4-2.6,0.8-3.2,0.9
		c0.2-0.6,0.9-2.6,1.2-2.8c0.5-0.4,0.9,0.4,1.3-0.1c-0.9-1.1-1.8-2.2-2.7-3.3c-0.3-0.4-0.6-1-1-0.7c0,0,0,1.5-0.1,1.7
		c-0.1,0.2-0.9,3.6-1.9,4.5c-0.5,0.4-2.2,1.9-2.7,2.1s-0.8-0.6-1.2,0c0.8,1,1.7,2,2.5,3c0.1,0.1,0.6,0.9,0.8,0.9
		c0.5,0.1,0.1-0.9,0.1-1.1c0.2-0.4,2.5-2.7,3.5-2.9C-85.2,244.4-83.4,243.9-81.9,244C-81.6,244.1-82.3,244-81.9,244z"/>
	<path fill="#DC6243" d="M-88.2,224.9c-4-0.2-2.4-4,0.4-4.8c2.6-0.8,8.1,1.7,9.8,3.4c-2.8,0.9-6.4,0.7-9.4,0.9
		C-87.6,221.2-88.4,222.3-88.2,224.9z"/>
	<path fill="#DC6243" d="M-78.7,237.4c-8.6-0.1-2.8-13.3,0.1-12.5C-75.2,226-75.6,237.5-78.7,237.4z"/>
	<path fill="#DC6243" d="M-72.6,233.1c-0.8,2.5-2.4,3-2.2-0.1c0.2-3.5,2.5-2.7,4.9-4c2-1.1,3.1-5.2,6.6-2.8c1.6,1.1,3.4,0.2,3.9,1.8
		c0-0.1-4.5,10.3-2,10.3c-5,0-2.8-5.9-0.9-9.9c-1.8,0.9-4.8,6.7-2.4,7.6c-1.3,1.7-5.2,3.9-7.2,2.3
		C-73.4,237.2-72.6,235.1-72.6,233.1z"/>
	<path fill="#DC6243" d="M-68.5,242.7c-3.5,1-8.1-1.2-2.5-2.3C-67.5,239.7-63.8,241.1-68.5,242.7C-68.4,242.7-68.6,242.7-68.5,242.7
		z"/>
	<path fill="#DC6243" d="M-64.1,242.6c-0.7-1.7,0.6-3.6,2.7-2.2C-59.6,241.6-62.3,243.5-64.1,242.6z"/>
	<path fill="#DC6243" d="M-67.1,247.2c-2.4-0.7-10.5-0.6-5.2-2.8C-70.6,243.8-62.1,244.6-67.1,247.2z"/>
	<path fill="#DC6243" d="M-56.6,250.5c-1.4-1.2-2.9-1.3-4.2,0c-1.8-3.3-8.3-2.2-11.4-2.7C-70.6,251.9-57.4,252.7-56.6,250.5z"/>
	<path fill="#DC6243" d="M-58.5,253c-3.2-0.1-6.7-0.6-9.6,0.1c1.9,0.5,6.4,1.8,2.2,2.9c1.5,2.2,4,2,5.6,0.1c-0.7-0.3-1-0.7-1.6-1.1
		C-60.3,254.7-58.7,253.8-58.5,253z"/>
	<path fill="#DC6243" d="M-54.9,249.1c-5.3-3.1-4-5.4,0.4-7.6c2.3-1.1,7.3-5.2,9.4-3.9C-48.4,241.5-51.7,245.3-54.9,249.1z"/>
	<path fill="#F49774" d="M-58.7,241.8c-4.5-4.6,6.7-4.2,8.5-5.8c1.3,0.4,10.8-8.3,13.1-7.7c-1.7,1.9-5.2,8.1-7.8,8.1
		c-2,0-4-0.3-5.5,1.1C-52.6,239.6-56.3,240.6-58.7,241.8z"/>
	<path fill="#F4B1A4" d="M-57.2,236.2c-2.5,1.3-4.8-3.9-0.5-3.4c2.8,0.3,5.7-0.2,8.3,0.2C-51.4,235.3-54.1,236.6-57.2,236.2z"/>
	<path fill="#FFFFFF" d="M-44.6,254.5c0.2,0.6,0.3,1.3,0.2,2c-0.1,0.9-1,2.9-2.2,2.3c-1.2-0.6-2.2-1.7-3.2-2.6
		c0.8-0.9,1.5-1.7,2.9-1.3c0.4,0.1,0.7,0,0.3-0.3c-0.4-0.2-3.1-2-3.3-1.8c-0.3,0.3,0.5,0.9,0.2,1.5c-0.2,0.4-0.6,0.8-0.9,1.2
		c-0.7-0.6-1.9-1.3-1.1-2.3c0.5-0.7,1.3-1.2,2.1-1.3c0.6-0.1,1.8,0.4,2-0.2c-1.1-0.5-2.2-1-3.3-1.6c0.2,0.8-3.3,4.5-4.1,5.5
		c-0.1,0.1-0.7,0.6-0.7,0.8c0,0.4,0.6,0.1,0.7,0.1c0.5-0.2,6.8,5.1,7,5.5c0.1,0.3-0.2,0.6,0,0.7c0,0,0.2,0.2,0.3,0.2
		c0.4-0.5,4.5-6,5.4-6.2c-0.8-1.2-1.6-2.4-2.4-3.7C-45.3,253.3-44.7,254-44.6,254.5z"/>
	<path fill="#FFFFFF" d="M-50.8,261.2c-2.1-1.3-5.6,1.3-6.1,1.5c-1,0.5-1.8-0.5-1.3-1.5c0.5-0.8,1.4-1.2,2.3-1.3
		c0.3,0,1.3,0.2,1.5,0c0.1-0.2,0.2-0.2,0-0.3c-0.9-0.6-1.7-1.2-2.6-1.7c-0.2,1.1-1.4,1.7-2.1,2.4c-0.8,0.9-1.5,1.9-1.5,3.2
		c0,1.1,0.7,2.1,1.7,2.7c1.1,0.6,2.3,0.1,3.3-0.5c0.6-0.4,1.3-0.9,1.9-1.2c1-0.5,2.3-0.1,2,1.3c-0.3,1.1-1.4,2.1-2.4,2.3
		c-0.6,0.2-1.3,0.1-1.9-0.1c-0.4-0.1-1-0.7-1.2-0.1c1.2,0.8,2.3,1.7,3.5,2.5c0.1-0.8,0.5-1.1,1.1-1.6c0.7-0.6,1.4-1.3,2-2.1
		C-49.4,265-49,262.6-50.8,261.2z"/>
	<path fill="#FFFFFF" d="M-50.8,261.2C-49.8,261.8-51.4,260.7-50.8,261.2L-50.8,261.2z"/>
	<path fill="#FFFFFF" d="M-14.1,221.6c-0.7,0.7-8.4-2.3-9-2.8c-0.3-0.1-0.3-1.3-0.7-0.8c-0.4,0.5-0.8,1-1.2,1.5s-0.8,1-1.3,1.5
		c-0.3,0.3-0.5,0.5,0,0.7c0.8-0.4,5.4,7.3,5,8.5c-0.7,0.4-6.9-5.1-7.1-5.4c-0.1-0.1,0.3-1-0.2-0.9c-0.2,0-0.7,0.9-0.9,1.1
		c-0.3,0.4-0.6,0.7-0.9,1.1c0.3,0.5,0.5,0,1,0c0.4,0.1,1.8,1.3,2.2,1.7c-0.7,0-2.7,0.1-2.9,0.1c-0.9,0.1-0.4-0.7-1-0.9
		c-0.8,0.9-1.5,1.8-2.3,2.8c-0.4,0.5-0.9,1.1-1.3,1.6c-0.1,0.1,0,0,0,0.1c0.3,0.3,0.1,0.2,0.6,0s6.6,4.9,6.8,5.2
		c0.4,0.4-0.2,1,0.4,1.2c0.6-0.7,1.2-1.5,1.8-2.2c0.1-0.1,0.1-0.1,0-0.2c-0.4-0.4-0.5,0.2-1,0.2c-0.5-0.1-4.4-3.4-5.9-4.6
		c1.8-0.1,7.3-0.3,8.2-0.3c0.3,0,1.1,0.9,1.1,1.2c-0.1,0.4-0.5,0.6,0.1,0.8c0.5-0.6,1-1.1,1.5-1.7l0.2-0.3c0.1-0.1,0.1-0.1,0.2-0.3
		l0.2-0.2c0.4-0.5,1.8-2,1.6-2.1c-0.5-0.4-0.7,0.5-1.3-0.1c-0.3-0.2-1.2-1.8-1.4-2.2c-0.3-0.4,0.6-0.9,1-1.1
		c0.8-0.5,3.2-1.2,3.5,0.3c0,0.3-0.3,0.5-0.1,0.7c0,0,0.2,0.2,0.3,0.2c0.2-0.2,2.4-2.8,3.3-4C-13.9,221.8-14,221.7-14.1,221.6z
		 M-21.5,223.8C-21.4,223.8-21.3,223.7-21.5,223.8c-0.3,0.2-0.7,0.5-1,0.8c-0.5-0.9-1-1.8-1.6-2.7c1.2,0.5,2.4,1,3.5,1.5
		C-20.8,223.5-21.1,223.6-21.5,223.8z"/>
	<path fill="#FFFFFF" d="M-31.2,235c-2.4-2-5.6-1.4-7.6,0.8c-1.9,2.3-1.7,5.7,0.6,7.6c2.3,1.9,5.7,1.4,7.6-0.8
		C-28.7,240.3-28.8,236.9-31.2,235z M-31.5,241.6C-31.5,241.6-31.5,241.7-31.5,241.6c-1.3,1.3-3.4,0.1-4.5-0.7
		c-1.1-0.8-3.1-2.6-1.9-4.1c1.1-1.3,3.1-0.2,4.2,0.5c1.2,0.8,3.4,2.6,2.3,4.2C-31.3,241.4-31.3,241.4-31.5,241.6z"/>
	<path fill="#FFFFFF" d="M-31.2,235C-30,236-31.5,234.8-31.2,235L-31.2,235z"/>
	<path fill="#FFFFFF" d="M-31.5,241.7C-31.5,241.6-31.5,241.6-31.5,241.7C-31.4,241.6-31.4,241.6-31.5,241.7
		C-31.5,241.6-31.5,241.7-31.5,241.7z"/>
	<path fill="#FFFFFF" d="M-37.8,244.1C-37.7,244.2-37.5,244.4-37.8,244.1c-2.9-2.2-6.3-1.6-8.5,1.1c-1,1.2-2,2.4-3,3.6
		c0.4,0.5,0.8-0.1,1.3,0.2c0.4,0.3,6.2,5.1,6.3,5.4c0.2,0.5-0.3,0.5,0.1,0.9c0.2,0.1,4.5-5.2,4.9-6.2
		C-35.8,247.3-36.4,245.4-37.8,244.1z M-39.1,250.9c-0.2,0.3,0,0.1-0.7,0.7c-0.3,0.3-6.4-4.7-6.2-4.9c0.8-0.9,2.6-1.6,3.6-1.3
		C-40.2,245.9-37.2,248.6-39.1,250.9z"/>
</g>
</svg>
